<?xml version="1.0" encoding="UTF-8" standalone="no"?>
<svg
   xmlns:osb="http://www.openswatchbook.org/uri/2009/osb"
   xmlns:dc="http://purl.org/dc/elements/1.1/"
   xmlns:cc="http://creativecommons.org/ns#"
   xmlns:rdf="http://www.w3.org/1999/02/22-rdf-syntax-ns#"
   xmlns:svg="http://www.w3.org/2000/svg"
   xmlns="http://www.w3.org/2000/svg"
   xmlns:xlink="http://www.w3.org/1999/xlink"
   xmlns:sodipodi="http://sodipodi.sourceforge.net/DTD/sodipodi-0.dtd"
   xmlns:inkscape="http://www.inkscape.org/namespaces/inkscape"
   width="253.30362mm"
   height="315.88168mm"
   viewBox="0 0 253.30364 315.88169"
   version="1.1"
   id="svg8"
   sodipodi:docname="logo_v2.1_small.svg"
   inkscape:version="0.92.4 (5da689c313, 2019-01-14)">
  <sodipodi:namedview
     pagecolor="#ffffff"
     bordercolor="#666666"
     borderopacity="1"
     objecttolerance="10"
     gridtolerance="10"
     guidetolerance="10"
     inkscape:pageopacity="0"
     inkscape:pageshadow="2"
     inkscape:window-width="1366"
     inkscape:window-height="705"
     id="namedview169"
     showgrid="false"
     inkscape:zoom="0.12251394"
     inkscape:cx="2572.7052"
     inkscape:cy="-914.52661"
     inkscape:window-x="-8"
     inkscape:window-y="-8"
     inkscape:window-maximized="1"
     inkscape:current-layer="g887" />
  <defs
     id="defs2">
    <linearGradient
       id="linearGradient2409">
      <stop
         style="stop-color:#2891ba;stop-opacity:1;"
         offset="0"
         id="stop2405" />
      <stop
         style="stop-color:#386844;stop-opacity:0.97663552"
         offset="1"
         id="stop2407" />
    </linearGradient>
    <linearGradient
       id="linearGradient2295">
      <stop
         id="stop2376"
         offset="0"
         style="stop-color:#2891ba;stop-opacity:1;" />
    </linearGradient>
    <linearGradient
       id="linearGradient2348"
       osb:paint="solid">
      <stop
         style="stop-color:#2891ba;stop-opacity:1;"
         offset="0"
         id="stop2346" />
    </linearGradient>
    <linearGradient
       id="linearGradient2336"
       osb:paint="solid">
      <stop
         style="stop-color:#2891ba;stop-opacity:1;"
         offset="0"
         id="stop2334" />
    </linearGradient>
    <linearGradient
       id="linearGradient2317"
       osb:paint="gradient">
      <stop
         id="stop2321"
         offset="0"
         style="stop-color:#000000;stop-opacity:1;" />
      <stop
         id="stop2323"
         offset="1"
         style="stop-color:#2891ba;stop-opacity:0;" />
    </linearGradient>
    <linearGradient
       id="linearGradient2305"
       osb:paint="gradient">
      <stop
         style="stop-color:#2891ba;stop-opacity:1;"
         offset="0"
         id="stop2301" />
      <stop
         style="stop-color:#2891ba;stop-opacity:0;"
         offset="1"
         id="stop2303" />
    </linearGradient>
    <linearGradient
       id="linearGradient2295-3">
      <stop
         style="stop-color:#2891ba;stop-opacity:1;"
         offset="0"
         id="stop2293" />
    </linearGradient>
    <radialGradient
       xlink:href="#linearGradient2295-3"
       id="radialGradient2374"
       cx="103.19232"
       cy="273.11688"
       fx="103.19232"
       fy="273.11688"
       r="91.614563"
       gradientTransform="matrix(1,0,0,0.12979101,0,237.66877)"
       gradientUnits="userSpaceOnUse" />
    <linearGradient
       xlink:href="#linearGradient2409"
       id="linearGradient2411"
       x1="84.978699"
       y1="248.15234"
       x2="84.678581"
       y2="288.97867"
       gradientUnits="userSpaceOnUse"
       gradientTransform="matrix(1.0154258,0,0,1.0154258,182.43328,-145.24961)" />
    <linearGradient
       y2="288.97867"
       x2="84.678581"
       y1="242.66803"
       x1="85.865189"
       gradientTransform="matrix(1.679938,0,0,1.679938,190.39513,-298.10597)"
       gradientUnits="userSpaceOnUse"
       id="linearGradient4612"
       xlink:href="#linearGradient2409" />
    <linearGradient
       y2="288.97867"
       x2="84.678581"
       y1="242.66803"
       x1="85.865189"
       gradientTransform="matrix(1.5706831,0,0,1.5706831,186.65942,-273.58118)"
       gradientUnits="userSpaceOnUse"
       id="linearGradient889"
       xlink:href="#linearGradient2409" />
    <linearGradient
       inkscape:collect="always"
       xlink:href="#linearGradient2409"
       id="linearGradient195"
       gradientUnits="userSpaceOnUse"
       gradientTransform="matrix(1.5706831,0,0,1.5706831,186.65942,-273.58118)"
       x1="85.865189"
       y1="242.66803"
       x2="84.678581"
       y2="288.97867" />
    <filter
       style="color-interpolation-filters:sRGB"
       inkscape:label="Drop Shadow"
       id="filter865">
      <feFlood
         flood-opacity="0.498039"
         flood-color="rgb(0,0,0)"
         result="flood"
         id="feFlood855" />
      <feComposite
         in="flood"
         in2="SourceGraphic"
         operator="in"
         result="composite1"
         id="feComposite857" />
      <feGaussianBlur
         in="composite1"
         stdDeviation="1.5"
         result="blur"
         id="feGaussianBlur859" />
      <feOffset
         dx="2.5"
         dy="2.5"
         result="offset"
         id="feOffset861" />
      <feComposite
         in="SourceGraphic"
         in2="offset"
         operator="over"
         result="composite2"
         id="feComposite863" />
    </filter>
    <filter
       style="color-interpolation-filters:sRGB"
       inkscape:label="Drop Shadow"
       id="filter889">
      <feFlood
         flood-opacity="0.498039"
         flood-color="rgb(0,0,0)"
         result="flood"
         id="feFlood879" />
      <feComposite
         in="flood"
         in2="SourceGraphic"
         operator="in"
         result="composite1"
         id="feComposite881" />
      <feGaussianBlur
         in="composite1"
         stdDeviation="1.5"
         result="blur"
         id="feGaussianBlur883" />
      <feOffset
         dx="2.5"
         dy="2.5"
         result="offset"
         id="feOffset885" />
      <feComposite
         in="SourceGraphic"
         in2="offset"
         operator="over"
         result="composite2"
         id="feComposite887" />
    </filter>
  </defs>
  <metadata
     id="metadata5">
    <rdf:RDF>
      <cc:Work
         rdf:about="">
        <dc:format>image/svg+xml</dc:format>
        <dc:type
           rdf:resource="http://purl.org/dc/dcmitype/StillImage" />
        <dc:title></dc:title>
      </cc:Work>
    </rdf:RDF>
  </metadata>
  <g
     transform="translate(53.63604,40.945241)"
     id="g4610">
    <g
       id="g887">
      <g
         transform="matrix(1.1836505,0,0,1.1836505,-41.914017,-25.311525)"
         id="g4602"
         style="filter:url(#filter865)">
        <g
           id="text3737"
           style="font-style:normal;font-variant:normal;font-weight:bold;font-stretch:normal;font-size:244.78968811px;line-height:9.25;font-family:'Arial Unicode MS';-inkscape-font-specification:'Arial Unicode MS Bold';letter-spacing:0px;word-spacing:0px;fill:#2891ba;fill-opacity:1;stroke:none;stroke-width:0.14729729;stroke-miterlimit:4;stroke-dasharray:none"
           transform="scale(0.95260984,1.0497477)"
           aria-label="#">
          <path
             inkscape:connector-curvature="0"
             id="path171"
             style="font-style:normal;font-variant:normal;font-weight:bold;font-stretch:normal;font-size:244.78968811px;line-height:5.25;font-family:Calibri;-inkscape-font-specification:'Calibri Bold';fill:#2891ba;fill-opacity:1;stroke-width:0.14729729;stroke-miterlimit:4;stroke-dasharray:none"
             d="m 156.45195,79.038189 q 0,2.868629 -0.35858,4.900575 -0.35858,1.912419 -0.95621,3.107682 -0.59763,1.195262 -1.55384,1.792893 -0.83668,0.478105 -1.79289,0.478105 h -13.62599 l -4.06389,34.064966 h 11.71357 q 2.03194,0 3.22721,2.39053 1.31478,2.271 1.31478,7.7692 0,2.86863 -0.35857,4.90058 -0.35858,2.03194 -0.95621,3.22721 -0.59763,1.19526 -1.55384,1.79289 -0.83669,0.4781 -1.7929,0.4781 h -14.22362 l -4.42247,37.41171 q -0.11952,1.07574 -0.71715,1.91242 -0.47811,0.71716 -1.91242,1.31479 -1.31479,0.59763 -3.70532,0.83668 -2.27099,0.23905 -5.85678,0.23905 -3.82484,0 -6.21536,-0.23905 -2.271,-0.23905 -3.46626,-0.83668 -1.19527,-0.59763 -1.67337,-1.31479 -0.35858,-0.83668 -0.23905,-1.91242 l 4.54199,-37.41171 H 81.03091 l -4.42247,37.41171 q -0.119526,0.95621 -0.717157,1.79289 -0.478105,0.83669 -1.792894,1.43432 -1.314788,0.59763 -3.705312,0.83668 -2.270998,0.23905 -6.095837,0.23905 -3.705313,0 -5.976311,-0.23905 -2.270998,-0.23905 -3.585786,-0.83668 -1.195263,-0.59763 -1.673367,-1.31479 -0.358579,-0.83668 -0.119527,-1.91242 l 4.302944,-37.41171 h -11.35499 q -2.031946,0 -3.346734,-2.27099 -1.195263,-2.271 -1.195263,-7.88873 0,-2.86863 0.358579,-4.90058 0.358579,-2.03194 0.95621,-3.22721 0.597631,-1.19526 1.434314,-1.67336 0.836684,-0.59764 1.91242,-0.59764 H 59.87477 L 63.938661,89.317444 H 51.866513 q -2.031945,0 -3.346734,-2.270998 -1.195262,-2.270999 -1.195262,-7.888731 0,-5.737258 1.314789,-8.008256 1.314788,-2.270998 3.346734,-2.270998 h 14.343145 l 4.302944,-34.901655 q 0,-1.075736 0.597631,-1.792893 0.597631,-0.836684 2.031946,-1.434315 1.434314,-0.597631 3.824839,-0.836683 2.390524,-0.358579 6.095837,-0.358579 3.705312,0 5.97631,0.358579 2.270999,0.239052 3.466261,0.836683 1.195262,0.597631 1.434314,1.434315 0.358579,0.717157 0.358579,1.673367 l -4.42247,35.021181 h 26.773874 l 4.06389,-34.901655 q 0.11953,-0.95621 0.71716,-1.792893 0.59763,-0.836684 1.91242,-1.434315 1.43431,-0.597631 3.82484,-0.836683 2.39052,-0.358579 6.21536,-0.358579 3.70531,0 5.97631,0.358579 2.271,0.239052 3.46626,0.836683 1.19526,0.597631 1.43431,1.434315 0.35858,0.717157 0.23906,1.673367 l -4.18342,35.021181 h 11.47452 q 2.03194,0 3.2272,2.390524 1.31479,2.270998 1.31479,7.769204 z M 87.604852,89.317444 83.54096,123.38241 h 26.65435 l 4.18341,-34.064966 z" />
        </g>
        <path
           inkscape:connector-curvature="0"
           style="fill:none;fill-rule:evenodd;stroke:#3291ba;stroke-width:16.92213631;stroke-linecap:round;stroke-miterlimit:4;stroke-dasharray:none;stroke-opacity:1"
           id="path3739"
           d="m 112.75383,185.65993 c 41.133,2.72852 73.65326,-40.40477 73.51096,-85.33565 C 186.09416,46.446405 143.82981,6.0294555 97.512774,9.2062949 45.43005,12.778584 5.4828099,67.131327 8.0470764,125.48484 10.845788,189.17357 61.272702,236.38927 116.67049,231.00516 c 16.61483,-1.6148 32.91577,-7.76155 47.2812,-17.74741" />
      </g>
      <g
         id="text4577"
         style="font-style:normal;font-variant:normal;font-weight:normal;font-stretch:normal;font-size:78.57857513px;line-height:1.25;font-family:sans-serif;-inkscape-font-specification:sans-serif;letter-spacing:0px;word-spacing:0px;fill:url(#linearGradient889);fill-opacity:1;stroke:none;stroke-width:0.41557649;filter:url(#filter889)"
         transform="scale(1.0154258,0.98480855)"
         aria-label="SOLUTIONS" />
    </g>
  </g>
</svg>
